<svg width="2148" height="2148" viewBox="0 0 2148 2148" fill="none" xmlns="http://www.w3.org/2000/svg">
<path d="M1098.39 45.4205L1216.73 569.331C1228.14 619.861 1286.13 643.88 1329.93 616.22L1784.07 329.441C1806.6 315.215 1832.78 341.4 1818.56 363.928L1531.78 818.069C1504.12 861.871 1528.14 919.857 1578.67 931.271L2102.58 1049.61C2128.57 1055.48 2128.57 1092.52 2102.58 1098.39L1578.67 1216.73C1528.14 1228.14 1504.12 1286.13 1531.78 1329.93L1818.56 1784.07C1832.78 1806.6 1806.6 1832.78 1784.07 1818.56L1329.93 1531.78C1286.13 1504.12 1228.14 1528.14 1216.73 1578.67L1098.39 2102.58C1092.52 2128.57 1055.48 2128.57 1049.61 2102.58L931.271 1578.67C919.857 1528.14 861.871 1504.12 818.07 1531.78L363.928 1818.56C341.4 1832.78 315.215 1806.6 329.441 1784.07L616.22 1329.93C643.88 1286.13 619.861 1228.14 569.331 1216.73L45.4206 1098.39C19.4315 1092.52 19.4318 1055.48 45.4205 1049.61L569.331 931.271C619.861 919.857 643.88 861.871 616.22 818.07L329.441 363.928C315.215 341.4 341.4 315.215 363.928 329.441L818.069 616.22C861.871 643.88 919.857 619.861 931.271 569.331L1049.61 45.4206C1055.48 19.4315 1092.52 19.4318 1098.39 45.4205Z" stroke="#EED3EF" stroke-opacity="0.5" stroke-width="50"/>
</svg>
