<svg width="1016" height="1016" viewBox="0 0 1016 1016" fill="none" xmlns="http://www.w3.org/2000/svg">
<path d="M508 450.66C497.451 450.664 487.14 453.796 478.371 459.659C469.602 465.523 462.769 473.855 458.735 483.602C454.7 493.348 453.647 504.073 455.707 514.418C457.768 524.764 462.849 534.266 470.31 541.724C477.771 549.182 487.275 554.26 497.621 556.317C507.968 558.373 518.692 557.316 528.437 553.278C538.182 549.24 546.512 542.403 552.372 533.632C558.232 524.861 561.36 514.549 561.36 504C561.349 489.853 555.724 476.289 545.718 466.288C535.713 456.286 522.147 450.665 508 450.66V450.66ZM632.71 409.66C629.995 402.778 625.894 396.528 620.663 391.297C615.432 386.066 609.182 381.965 602.3 379.25C581.3 370.96 531.3 372.82 508 372.82C484.7 372.82 434.75 370.89 413.69 379.25C406.808 381.965 400.558 386.066 395.327 391.297C390.096 396.528 385.995 402.778 383.28 409.66C375 430.66 376.85 480.71 376.85 503.99C376.85 527.27 375 577.26 383.32 598.33C386.035 605.212 390.136 611.462 395.367 616.693C400.598 621.924 406.848 626.025 413.73 628.74C434.73 637.03 484.73 635.17 508.04 635.17C531.35 635.17 581.28 637.1 602.34 628.74C609.222 626.025 615.472 621.924 620.703 616.693C625.934 611.462 630.035 605.212 632.75 598.33C641.1 577.33 639.18 527.28 639.18 504C639.18 480.72 641.1 430.74 632.75 409.67L632.71 409.66ZM508 586C491.782 586 475.928 581.191 462.443 572.181C448.958 563.17 438.448 550.364 432.242 535.38C426.035 520.396 424.412 503.909 427.576 488.003C430.74 472.096 438.549 457.485 450.017 446.017C461.485 434.549 476.096 426.74 492.003 423.576C507.909 420.412 524.396 422.035 539.38 428.242C554.364 434.448 567.17 444.958 576.181 458.443C585.191 471.928 590 487.782 590 504C590.013 514.772 587.901 525.441 583.785 535.396C579.669 545.35 573.629 554.395 566.012 562.012C558.395 569.629 549.35 575.669 539.396 579.785C529.441 583.901 518.772 586.013 508 586V586ZM593.38 437.7C589.594 437.702 585.893 436.581 582.744 434.479C579.595 432.377 577.14 429.389 575.69 425.891C574.24 422.394 573.859 418.546 574.597 414.832C575.334 411.119 577.156 407.707 579.832 405.03C582.509 402.352 585.919 400.528 589.632 399.788C593.345 399.049 597.194 399.428 600.692 400.876C604.19 402.324 607.18 404.778 609.284 407.925C611.387 411.073 612.51 414.774 612.51 418.56C612.521 421.074 612.035 423.566 611.08 425.892C610.126 428.217 608.721 430.332 606.948 432.114C605.174 433.896 603.066 435.31 600.745 436.276C598.423 437.241 595.934 437.739 593.42 437.74L593.38 437.7ZM684 280H332C319.27 280 307.061 285.057 298.059 294.059C289.057 303.061 284 315.27 284 328V680C284 692.73 289.057 704.939 298.059 713.941C307.061 722.943 319.27 728 332 728H684C696.73 728 708.939 722.943 717.941 713.941C726.943 704.939 732 692.73 732 680V328C732 315.27 726.943 303.061 717.941 294.059C708.939 285.057 696.73 280 684 280V280ZM666.88 570C665.59 595.63 659.74 618.34 641.03 637C622.32 655.66 599.63 661.63 574.03 662.85C547.62 664.34 468.44 664.34 442.03 662.85C416.4 661.56 393.77 655.7 375.03 637C356.29 618.3 350.4 595.58 349.18 570C347.69 543.58 347.69 464.39 349.18 438C350.47 412.37 356.25 389.66 375.03 371C393.81 352.34 416.5 346.44 442.03 345.22C468.44 343.73 547.62 343.73 574.03 345.22C599.66 346.51 622.36 352.37 641.03 371.07C659.7 389.77 665.66 412.49 666.88 438.12C668.37 464.44 668.37 543.56 666.88 570Z" fill="white"/>
<g filter="url(#filter0_d_514_28)">
<rect x="-22.3553" y="504.264" width="750" height="750" rx="125" transform="rotate(-45 -22.3553 504.264)" stroke="white" stroke-width="50" shape-rendering="crispEdges"/>
</g>
<defs>
<filter id="filter0_d_514_28" x="0.421387" y="0.710693" width="1015.11" height="1015.11" filterUnits="userSpaceOnUse" color-interpolation-filters="sRGB">
<feFlood flood-opacity="0" result="BackgroundImageFix"/>
<feColorMatrix in="SourceAlpha" type="matrix" values="0 0 0 0 0 0 0 0 0 0 0 0 0 0 0 0 0 0 127 0" result="hardAlpha"/>
<feOffset dy="4"/>
<feGaussianBlur stdDeviation="2"/>
<feComposite in2="hardAlpha" operator="out"/>
<feColorMatrix type="matrix" values="0 0 0 0 0 0 0 0 0 0 0 0 0 0 0 0 0 0 0.25 0"/>
<feBlend mode="normal" in2="BackgroundImageFix" result="effect1_dropShadow_514_28"/>
<feBlend mode="normal" in="SourceGraphic" in2="effect1_dropShadow_514_28" result="shape"/>
</filter>
</defs>
</svg>
