<svg width="1016" height="1016" viewBox="0 0 1016 1016" fill="none" xmlns="http://www.w3.org/2000/svg">
<path d="M681.643 309H334.357C308.212 309 287 330.212 287 356.357V703.643C287 729.788 308.212 751 334.357 751H681.643C707.788 751 729 729.788 729 703.643V356.357C729 330.212 707.788 309 681.643 309ZM560.586 687.561C552.299 689.041 549.24 683.911 549.24 679.668C549.24 674.341 549.437 647.11 549.437 625.109C549.437 609.718 544.307 599.95 538.289 594.82C574.793 590.775 613.271 585.743 613.271 522.699C613.271 504.743 606.858 495.765 596.4 484.221C598.077 479.979 603.701 462.516 594.723 439.824C581.009 435.582 549.635 457.484 549.635 457.484C536.612 453.834 522.503 451.959 508.592 451.959C494.681 451.959 480.572 453.834 467.549 457.484C467.549 457.484 436.175 435.582 422.461 439.824C413.483 462.417 419.008 479.88 420.784 484.221C410.326 495.765 405.393 504.743 405.393 522.699C405.393 585.447 442.193 590.775 478.698 594.82C473.962 599.063 469.72 606.363 468.24 616.821C458.867 621.064 434.892 628.365 420.587 603.108C411.608 587.519 395.428 586.237 395.428 586.237C379.445 586.039 394.343 596.3 394.343 596.3C404.998 601.233 412.496 620.176 412.496 620.176C422.067 649.478 467.845 639.612 467.845 639.612C467.845 653.326 468.042 675.623 468.042 679.668C468.042 683.911 465.083 689.041 456.696 687.561C391.58 665.757 345.999 603.798 345.999 531.381C345.999 440.811 415.259 372.044 505.829 372.044C596.4 372.044 669.804 440.811 669.804 531.381C669.902 603.798 625.702 665.856 560.586 687.561ZM463.8 627.279C461.925 627.674 460.15 626.885 459.952 625.602C459.755 624.122 461.038 622.84 462.912 622.445C464.787 622.248 466.562 623.037 466.76 624.32C467.056 625.602 465.773 626.885 463.8 627.279ZM454.427 626.392C454.427 627.674 452.947 628.759 450.974 628.759C448.804 628.957 447.324 627.871 447.324 626.392C447.324 625.109 448.804 624.024 450.777 624.024C452.651 623.826 454.427 624.912 454.427 626.392ZM440.911 625.306C440.516 626.589 438.543 627.181 436.866 626.589C434.991 626.194 433.708 624.714 434.103 623.432C434.498 622.149 436.471 621.557 438.148 621.952C440.121 622.544 441.404 624.024 440.911 625.306ZM428.775 619.979C427.887 621.064 426.013 620.867 424.533 619.387C423.053 618.104 422.658 616.229 423.645 615.342C424.533 614.256 426.408 614.454 427.888 615.933C429.17 617.216 429.663 619.189 428.775 619.979ZM419.797 611C418.909 611.592 417.232 611 416.147 609.521C415.062 608.041 415.062 606.363 416.147 605.673C417.232 604.785 418.909 605.475 419.797 606.955C420.883 608.435 420.883 610.211 419.797 611ZM413.384 601.43C412.496 602.318 411.017 601.825 409.931 600.838C408.846 599.556 408.649 598.076 409.537 597.385C410.425 596.497 411.904 596.991 412.99 597.977C414.075 599.26 414.272 600.74 413.384 601.43ZM406.774 594.129C406.379 595.017 405.097 595.215 404.012 594.524C402.729 593.932 402.137 592.847 402.532 591.959C402.926 591.367 404.012 591.071 405.294 591.564C406.577 592.255 407.169 593.34 406.774 594.129Z" fill="white"/>
<g filter="url(#filter0_d_514_30)">
<rect x="-22.3553" y="503.975" width="750" height="750" rx="125" transform="rotate(-45 -22.3553 503.975)" stroke="white" stroke-width="50" shape-rendering="crispEdges"/>
</g>
<defs>
<filter id="filter0_d_514_30" x="0.421387" y="0.421387" width="1015.11" height="1015.11" filterUnits="userSpaceOnUse" color-interpolation-filters="sRGB">
<feFlood flood-opacity="0" result="BackgroundImageFix"/>
<feColorMatrix in="SourceAlpha" type="matrix" values="0 0 0 0 0 0 0 0 0 0 0 0 0 0 0 0 0 0 127 0" result="hardAlpha"/>
<feOffset dy="4"/>
<feGaussianBlur stdDeviation="2"/>
<feComposite in2="hardAlpha" operator="out"/>
<feColorMatrix type="matrix" values="0 0 0 0 0 0 0 0 0 0 0 0 0 0 0 0 0 0 0.25 0"/>
<feBlend mode="normal" in2="BackgroundImageFix" result="effect1_dropShadow_514_30"/>
<feBlend mode="normal" in="SourceGraphic" in2="effect1_dropShadow_514_30" result="shape"/>
</filter>
</defs>
</svg>
