<svg width="2148" height="2148" viewBox="0 0 2148 2148" fill="none" xmlns="http://www.w3.org/2000/svg">
<path d="M1074 50.9288L1192.34 574.839C1207.56 642.213 1284.88 674.238 1343.28 637.359L1797.42 350.579L1510.64 804.721C1473.76 863.123 1505.79 940.438 1573.16 955.657L2097.07 1074L1573.16 1192.34C1505.79 1207.56 1473.76 1284.88 1510.64 1343.28L1797.42 1797.42L1343.28 1510.64C1284.88 1473.76 1207.56 1505.79 1192.34 1573.16L1074 2097.07L955.657 1573.16C940.438 1505.79 863.123 1473.76 804.721 1510.64L350.58 1797.42L637.359 1343.28C674.238 1284.88 642.213 1207.56 574.839 1192.34L50.9289 1074L574.839 955.657C642.213 940.438 674.238 863.123 637.359 804.721L350.579 350.579L804.721 637.359C863.123 674.238 940.438 642.213 955.657 574.839L1074 50.9288ZM1074.27 2097.95L1074.25 2097.93C1074.26 2097.95 1074.27 2097.96 1074.27 2097.96L1074.27 2097.96L1074.27 2097.95Z" stroke="#EED3EF" stroke-opacity="0.5" stroke-width="100"/>
</svg>
