<?xml version="1.0" standalone="no"?>
<!DOCTYPE svg PUBLIC "-//W3C//DTD SVG 20010904//EN"
 "http://www.w3.org/TR/2001/REC-SVG-20010904/DTD/svg10.dtd">
<svg version="1.0" xmlns="http://www.w3.org/2000/svg"
 width="512.000000pt" height="512.000000pt" viewBox="0 0 512.000000 512.000000"
 preserveAspectRatio="xMidYMid meet">
<metadata>
Created by potrace 1.14, written by Peter Selinger 2001-2017
</metadata>
<g transform="translate(0.000000,512.000000) scale(0.100000,-0.100000)"
fill="#000000" stroke="none">
<path d="M2420 5020 c-400 -33 -740 -191 -1054 -491 -182 -174 -294 -334 -352
-506 -18 -51 -13 -63 26 -63 16 0 31 -3 33 -7 2 -5 -6 -57 -19 -118 -31 -147
-32 -351 -4 -514 11 -63 24 -119 29 -124 16 -16 49 20 61 64 17 62 50 129 64
129 18 0 26 -32 26 -100 0 -30 4 -70 10 -89 5 -18 14 -68 20 -110 5 -42 17
-104 27 -139 20 -78 14 -87 -66 -88 -90 -2 -130 -29 -168 -114 -54 -119 -18
-383 79 -573 50 -99 208 -277 266 -300 50 -20 55 -28 81 -117 43 -148 134
-290 270 -425 39 -38 71 -78 71 -88 0 -10 -10 -37 -22 -60 -14 -27 -23 -68
-26 -115 -4 -63 -1 -82 23 -142 23 -57 26 -72 15 -85 -12 -14 -62 -40 -202
-103 -68 -31 -136 -91 -166 -147 -15 -28 -33 -75 -67 -170 -7 -22 -32 -92 -55
-155 -23 -63 -48 -137 -57 -165 -8 -27 -19 -54 -24 -60 -5 -5 -9 -17 -9 -27 0
-17 30 -18 623 -18 l624 0 6 148 c9 236 39 273 51 61 3 -63 9 -136 12 -162 l7
-47 252 0 253 0 7 68 c5 47 2 86 -8 127 -9 33 -17 92 -19 130 -2 57 0 70 12
70 12 0 16 -22 21 -115 4 -64 12 -142 19 -175 6 -33 14 -70 16 -82 l4 -23 317
0 316 0 -6 233 c-5 192 -10 242 -26 288 -26 76 -60 128 -112 170 -49 39 -181
119 -198 119 -16 0 -31 44 -31 88 0 20 -7 70 -17 110 -21 88 -25 78 102 224
50 57 125 146 168 199 138 175 237 384 237 505 0 73 12 97 63 132 66 46 177
219 223 350 33 94 51 299 36 415 -22 167 -98 254 -216 245 -28 -3 -59 -8 -68
-12 -31 -14 -38 31 -27 161 8 83 8 152 0 233 -6 63 -12 143 -15 177 -11 165
-100 437 -197 604 -25 43 -27 57 -31 180 -3 117 -7 140 -27 179 -53 102 -110
152 -223 196 -32 12 -78 39 -102 59 -77 63 -166 102 -315 140 -110 28 -361 39
-541 25z m1025 -1015 c57 -26 116 -83 140 -135 9 -19 23 -48 32 -63 13 -26 13
-30 -2 -47 -15 -17 -15 -21 6 -61 17 -34 19 -47 10 -61 -15 -25 -14 -53 4 -68
12 -10 14 -24 9 -57 -5 -38 -3 -48 17 -69 37 -40 59 -27 59 36 0 15 6 33 14
39 11 9 15 7 20 -13 14 -58 27 -324 21 -466 -4 -90 -1 -210 5 -285 21 -236 23
-430 6 -655 -13 -173 -21 -228 -40 -282 -38 -107 -116 -238 -210 -353 -202
-247 -436 -490 -518 -538 -76 -44 -193 -67 -349 -67 -125 0 -141 2 -195 26
-103 45 -254 155 -469 339 -346 296 -411 394 -483 725 -39 181 -61 326 -77
495 -23 252 -62 547 -85 648 -12 55 -12 208 0 227 9 13 11 13 20 0 5 -8 10
-25 10 -37 0 -24 30 -46 46 -35 19 12 23 40 23 139 -1 337 -2 321 26 369 48
81 125 141 213 164 20 5 78 21 127 35 122 36 189 41 248 21 98 -33 373 -10
486 41 31 14 39 14 95 -3 78 -24 385 -27 426 -5 65 36 280 34 365 -4z m580
-1021 c69 -45 94 -166 75 -364 -13 -131 -47 -243 -95 -313 -12 -19 -35 -55
-50 -81 -43 -74 -78 -51 -54 36 7 29 10 112 8 252 -3 157 -1 210 8 213 7 3 19
-11 28 -29 33 -70 48 -93 53 -79 6 19 -19 132 -37 164 -15 26 -14 30 12 79 15
28 25 53 22 56 -3 3 -30 -18 -60 -48 l-54 -53 -11 29 c-35 90 77 189 155 138z
m-2724 -236 c21 -24 29 -42 29 -70 0 -57 -18 -59 -68 -5 -9 9 -24 17 -34 17
-21 0 -24 -25 -4 -37 28 -17 36 -49 25 -100 -15 -66 -16 -125 -2 -130 6 -2 14
9 17 24 9 37 40 78 55 69 6 -4 11 -25 11 -46 0 -21 7 -73 15 -116 8 -43 18
-115 21 -159 4 -51 13 -91 25 -111 23 -38 26 -104 4 -104 -15 0 -144 156 -183
220 -84 141 -129 428 -82 520 25 48 43 59 98 60 36 0 48 -5 73 -32z m1644
-2087 c0 -104 -2 -115 -21 -127 -37 -25 -108 -28 -204 -9 -96 19 -120 35 -120
83 0 12 -9 40 -20 62 -24 47 -26 76 -4 84 9 3 59 6 112 7 53 1 124 5 157 9
107 13 100 21 100 -109z"/>
<path d="M3015 3283 c-117 -26 -182 -46 -201 -64 -26 -24 -36 -66 -22 -93 9
-16 18 -18 72 -12 33 3 106 11 161 16 55 5 122 14 150 20 43 9 60 7 110 -9 33
-11 78 -29 100 -40 44 -23 61 -26 70 -11 17 28 -92 136 -176 175 -47 21 -67
25 -149 24 -52 -1 -104 -3 -115 -6z"/>
<path d="M1960 3204 c-100 -36 -149 -70 -208 -146 -50 -65 -64 -108 -35 -108
11 0 38 13 59 28 108 77 96 74 333 82 119 4 224 11 234 15 29 12 22 66 -14
101 l-30 29 -162 2 c-89 1 -169 0 -177 -3z"/>
<path d="M2993 2908 c-48 -18 -193 -136 -216 -175 -14 -24 -14 -290 1 -304 10
-10 12 8 12 93 0 59 3 113 6 122 8 20 67 21 83 2 19 -22 58 -27 93 -13 l33 14
-51 6 c-35 5 -58 15 -73 31 -28 30 -23 51 23 95 50 48 68 38 95 -53 l22 -73
152 4 c84 3 167 9 185 15 35 11 108 79 118 111 3 11 -1 26 -12 38 -20 22 -116
70 -188 93 -71 23 -216 20 -283 -6z m107 -68 c0 -13 -7 -20 -19 -20 -25 0 -38
20 -20 31 23 15 39 10 39 -11z m250 -10 c22 -11 41 -26 41 -33 3 -33 -6 -54
-34 -80 -26 -23 -39 -27 -77 -25 l-45 3 3 65 c2 35 8 70 14 77 15 19 53 16 98
-7z"/>
<path d="M2065 2853 c-45 -6 -148 -39 -186 -60 -66 -35 -149 -105 -149 -125 0
-23 60 -85 96 -98 33 -13 74 -13 74 0 0 6 -3 10 -7 10 -17 0 -83 70 -83 88 0
26 68 72 107 72 29 0 33 -4 47 -47 9 -27 15 -61 13 -78 l-2 -30 167 -3 167 -2
45 32 c71 50 70 73 -10 153 -62 63 -183 101 -279 88z m13 -90 c5 -17 -26 -29
-40 -15 -6 6 -7 15 -3 22 9 14 37 9 43 -7z m212 -23 c27 -15 70 -56 70 -67 0
-22 -51 -56 -92 -60 -64 -7 -75 10 -52 81 18 59 33 68 74 46z"/>
<path d="M2886 2035 c-8 -23 -8 -35 3 -35 13 0 20 25 11 39 -5 10 -9 8 -14 -4z"/>
<path d="M2731 1954 c-55 -43 -90 -44 -165 -4 -53 29 -76 31 -76 9 0 -5 6 -9
13 -9 7 0 36 -16 66 -35 57 -38 112 -46 140 -20 44 39 59 51 84 64 20 11 24
17 15 23 -21 13 -30 9 -77 -28z"/>
<path d="M2420 1970 c0 -5 5 -10 11 -10 5 0 7 5 4 10 -3 6 -8 10 -11 10 -2 0
-4 -4 -4 -10z"/>
<path d="M3135 1754 c-44 -18 -89 -33 -99 -34 -11 0 -52 -9 -90 -19 -39 -10
-147 -27 -241 -36 -160 -16 -180 -16 -334 0 -91 9 -175 21 -188 26 -37 14 -61
11 -83 -11 -23 -23 -17 -48 15 -56 12 -3 47 -36 78 -74 159 -194 339 -272 565
-243 182 24 318 122 428 310 20 35 51 75 67 87 34 27 31 56 -9 74 -14 7 -26
11 -27 11 -1 -1 -38 -16 -82 -35z m-2 -92 c8 -12 -35 -58 -70 -76 -94 -47
-349 -80 -577 -74 -148 4 -155 5 -195 31 -26 18 -41 34 -39 45 3 14 27 16 238
13 181 -2 251 1 305 13 39 8 96 18 128 21 32 4 73 13 90 20 34 15 113 20 120
7z"/>
</g>
</svg>
